<?xml version="1.0" encoding="UTF-8" standalone="no"?>
<!-- Created with Inkscape (http://www.inkscape.org/) -->

<svg
   version="1.1"
   id="svg228"
   width="996.54248"
   height="1375.6306"
   viewBox="0 0 996.54245 1375.6306"
   xmlns="http://www.w3.org/2000/svg"
   xmlns:svg="http://www.w3.org/2000/svg">
  <defs
     id="defs232" />
  <g
     id="g234"
     transform="translate(-376.00575,-152.6408)">
    <path
       style="fill:#5235d6;stroke-width:1.06667"
       d="m 727.27739,1527.9885 c -0.21098,-0.211 -2.53469,-0.6476 -5.16382,-0.9702 -8.88425,-1.0905 -22.85935,-5.5798 -33.31356,-10.7014 -5.72,-2.8023 -10.4,-5.52 -10.4,-6.0393 0,-0.5194 -0.6336,-0.9442 -1.408,-0.9442 -0.7744,0 -3.37071,-1.68 -5.76956,-3.7334 -2.39886,-2.0533 -4.5956,-3.7333 -4.88166,-3.7333 -0.68942,0 -15.67411,-15 -15.67411,-15.6901 0,-0.295 -1.37086,-2.2853 -3.04636,-4.4231 -6.74956,-8.6117 -15.33056,-25.3082 -20.04722,-39.007 -4.56801,-13.267 -7.80751,-34.6332 -8.21773,-54.2001 -0.16897,-8.0597 -0.63493,-14.9815 -1.03549,-15.3821 -0.40055,-0.4005 -1.80639,0.21 -3.12407,1.3568 -1.31769,1.1467 -4.81539,4.2286 -7.77266,6.8486 -6.15803,5.4557 -12.78907,10.7166 -15.30077,12.1391 -0.94731,0.5366 -1.96237,1.2967 -2.2557,1.689 -0.29334,0.3924 -3.89334,2.6804 -8,5.0844 -32.24266,18.8743 -69.54308,21.2937 -100.41419,6.5131 -4.77448,-2.2859 -9.27325,-4.87 -9.99728,-5.7425 -0.72403,-0.8723 -1.87176,-1.5861 -2.55051,-1.5861 -1.73182,0 -12.89218,-11.0852 -17.66099,-17.5422 -8.85939,-11.9954 -14.31562,-24.4439 -17.58707,-40.1253 -2.53279,-12.1407 -2.13324,-21.9318 1.45161,-35.5723 1.70954,-6.5047 3.63955,-14.2269 4.2889,-17.1602 1.09485,-4.9458 7.24271,-20.6556 8.55728,-21.8667 0.3184,-0.2933 1.47823,-2.2133 2.57741,-4.2666 2.22654,-4.1594 12.21808,-19.8892 14.22328,-22.3919 0.70864,-0.8845 2.77562,-3.5281 4.59328,-5.8748 5.63973,-7.2811 16.00734,-18.5393 28.72924,-31.1972 9.56212,-9.514 11.87597,-12.3625 10.66667,-13.1316 -0.84937,-0.5402 -2.09941,-0.7795 -2.7779,-0.5318 -0.67847,0.2478 -5.68644,1.2687 -11.12882,2.2689 -13.51479,2.4837 -31.85181,1.6201 -45.58122,-2.1468 -5.469,-1.5006 -10.93558,-2.7282 -12.14796,-2.7282 -2.08045,0 -19.9644,-8.0194 -21.1084,-9.4653 -0.29334,-0.3706 -2.67719,-2.1127 -5.29744,-3.871 -2.62027,-1.7584 -5.538,-3.917 -6.48384,-4.797 -0.94586,-0.88 -2.88201,-2.5992 -4.30256,-3.8204 -8.99711,-7.7343 -18.91614,-24.8928 -22.14808,-38.3129 -2.92025,-12.1259 -2.19738,-26.6902 2.06472,-41.6 2.1917,-7.6671 2.69889,-9.0463 5.68753,-15.4667 7.73257,-16.6116 23.95444,-35.4333 43.90913,-50.9463 8.56235,-6.6566 12.58098,-9.6408 17.57851,-13.0537 3.00664,-2.0533 7.93985,-5.5051 10.96266,-7.67066 3.02282,-2.16552 6.93604,-4.93691 8.69604,-6.15863 6.41683,-4.45435 18.16137,-12.75457 19.22233,-13.58501 0.59895,-0.46881 4.19895,-3.23619 8,-6.14974 18.67153,-14.31193 43.90262,-38.76426 54.37767,-52.6993 1.46666,-1.95112 3.42629,-4.34006 4.35472,-5.30875 0.92843,-0.96869 4.03208,-5.12126 6.897,-9.22793 2.86492,-4.10666 5.48833,-7.70666 5.82982,-8 0.34149,-0.29333 1.99628,-2.93333 3.67734,-5.86666 1.68104,-2.93334 3.33799,-5.5737 3.68211,-5.86748 0.79073,-0.67504 3.56205,-5.79858 8.65396,-15.99919 6.00335,-12.02646 7.21923,-15.05586 7.95899,-19.82992 0.37186,-2.3998 1.40191,-5.7598 2.289,-7.46667 0.8871,-1.70688 3.03017,-9.58341 4.76239,-17.50341 1.73222,-7.92 3.85715,-17.37865 4.72208,-21.01922 0.89161,-3.75289 1.57259,-11.72486 1.57259,-18.40971 0,-11.60869 -0.0486,-11.84141 -3.15588,-15.09282 -2.56471,-2.68371 -4.21318,-3.38972 -8.8,-3.76885 -13.43963,-1.11091 -26.88483,-3.73407 -37.73016,-7.36119 -6.40602,-2.14242 -11.8873,-4.21961 -12.18063,-4.61599 -0.29333,-0.39637 -2.69333,-2.38828 -5.33333,-4.42645 -15.2422,-11.76752 -19.97498,-25.72142 -15.61397,-46.03551 1.56831,-7.30541 7.42644,-20.00237 11.98796,-25.98283 1.40764,-1.8455 2.55934,-3.67016 2.55934,-4.05478 0,-0.38463 0.84,-1.56588 1.86667,-2.62501 1.02666,-1.05912 3.06666,-3.39452 4.53333,-5.18977 4.2907,-5.25198 14.20948,-16.55403 16.62793,-18.94688 2.08355,-2.06149 8.69678,-9.55199 13.92773,-15.7753 2.96976,-3.53316 3.3321,-5.70516 4.14201,-24.82903 0.37269,-8.8 0.8728,-17.92 1.11136,-20.26667 1.66226,-16.35159 5.77518,-35.62015 15.14093,-70.93333 4.80881,-18.13145 5.57729,-20.75483 7.03044,-24 0.7881,-1.76 2.04153,-4.88 2.78539,-6.93333 1.46282,-4.03792 7.97289,-18.39919 9.91233,-21.86667 3.30487,-5.90871 6.11343,-11.86692 6.11741,-12.97778 0.002,-0.68444 0.37969,-1.40444 0.83829,-1.6 0.4586,-0.19555 2.25374,-3.23555 3.98921,-6.75555 1.73546,-3.52 3.42525,-6.64 3.75509,-6.93334 0.32984,-0.29333 1.43849,-2.45333 2.46367,-4.8 1.02519,-2.34666 2.58313,-5.46667 3.4621,-6.93333 2.60677,-4.34977 14.81563,-30.07984 17.46151,-36.8 2.03898,-5.17873 3.36797,-13.6439 2.8006,-17.83886 -0.33929,-2.50863 -0.8358,-6.72114 -1.10336,-9.36114 -1.30017,-12.8288 -1.74203,-16.74316 -2.16735,-19.2 -0.2539,-1.46667 -0.68874,-4.58667 -0.96631,-6.93334 -1.07731,-9.10794 -1.97684,-14.96466 -2.40874,-15.68312 -0.24792,-0.4124 -0.72099,-4.2524 -1.05129,-8.53334 -0.33029,-4.28095 -0.96895,-11.62354 -1.41923,-16.31687 -0.45028,-4.69333 -0.72005,-17.17333 -0.5995,-27.73333 0.19825,-17.36541 0.50365,-20.21922 3.19616,-29.86667 1.63733,-5.86667 3.83649,-14.26667 4.88702,-18.66667 1.05053,-4.4 2.9061,-10.88 4.1235,-14.4 2.09267,-6.05083 9.51025,-21.78205 10.8135,-22.93333 0.33206,-0.29334 2.11935,-2.76137 3.97179,-5.48452 1.85243,-2.72314 5.49708,-6.82522 8.09922,-9.11572 18.27673,-16.08782 40.85364,-14.49689 81.19193,5.72134 17.42315,8.73276 24.3253,12.37384 25.06667,13.22337 0.29333,0.33612 1.25333,0.93253 2.13333,1.32535 0.88,0.39282 4.96,2.88905 9.06667,5.54718 4.10666,2.65812 8.1654,5.15097 9.01943,5.53964 0.85403,0.38867 2.29403,1.31694 3.2,2.06281 0.90597,0.74587 5.00723,3.74609 9.1139,6.66715 4.10667,2.92106 9.62667,6.89758 12.26667,8.83671 7.31419,5.37243 25.18992,20.50412 36.26666,30.69951 13.49183,12.41833 14.27005,12.64703 49.06667,14.41981 6.16,0.31384 16,0.81506 21.86667,1.11383 5.86667,0.29877 12.10667,0.76069 13.86667,1.02648 1.76,0.26581 6.56,0.77067 10.66666,1.12193 4.10667,0.35126 9.14667,1.08368 11.2,1.62761 2.05334,0.54392 5.41334,0.99683 7.46667,1.00645 2.05333,0.01 6.11729,0.74062 9.03101,1.62445 2.91373,0.88383 6.89654,1.80527 8.85071,2.04765 13.18666,1.63555 62.58036,15.30942 73.31826,20.297 2.9334,1.36249 6.5292,2.83466 7.9907,3.2715 1.4615,0.43683 5.6191,2.16515 9.2392,3.84069 3.62,1.67554 6.8291,3.04645 7.1314,3.04645 0.3023,0 4.1867,1.68 8.632,3.73333 4.4453,2.05333 9.0004,3.73333 10.1223,3.73333 1.122,0 2.1999,0.40747 2.3956,0.90549 0.3832,0.9761 13.8114,6.56118 15.7749,6.56118 0.654,0 2.2521,0.66346 3.5515,1.47435 1.2993,0.81088 5.8684,2.30896 10.1535,3.32904 l 7.7911,1.85471 9.8089,-3.2825 c 5.3949,-1.80537 14.1289,-4.2734 19.4089,-5.48451 22.9562,-5.26558 21.6426,-5.03583 51.7334,-9.04864 1.4666,-0.19558 5.7866,-0.70107 9.6,-1.1233 3.8133,-0.42223 7.8933,-0.9686 9.0666,-1.21414 3.8128,-0.7979 43.4957,-0.67664 52.2667,0.15971 12.9463,1.23449 13.3294,1.29037 21.3333,3.11256 13.5914,3.09424 14.9041,3.50027 18.6667,5.7739 2.0533,1.24078 5.0066,2.97751 6.5628,3.85941 8.16,4.62424 15.9514,15.76736 18.3723,26.27584 2.43,10.54781 3.2636,24.62556 1.8757,31.6765 -0.6608,3.35706 -1.947,9.94374 -2.8582,14.63707 -0.9111,4.69333 -2.7919,12.85333 -4.1794,18.13333 -1.3875,5.28 -2.8407,11.47931 -3.2294,13.77625 -0.9972,5.89395 -4.4315,13.71128 -12.9259,29.42294 -1.1099,2.0529 -2.3062,3.9729 -2.6585,4.26667 -0.3524,0.29378 -2.4946,3.77415 -4.7606,7.73415 -2.2659,3.96 -4.4976,7.2 -4.9593,7.2 -0.4617,0 -0.8395,0.53569 -0.8395,1.19042 0,0.65474 -1.6044,3.41474 -3.5652,6.13333 -1.961,2.7186 -5.8841,8.30291 -8.7182,12.40958 -6.8384,9.90912 -11.8751,17.09285 -16.0792,22.93333 -13.3915,18.60417 -12.9465,17.63786 -13.7385,29.83101 -0.3989,6.14039 -0.8892,11.42969 -1.0896,11.75401 -0.2005,0.32432 -0.6898,4.42037 -1.0874,9.10233 -0.3976,4.68196 -0.8802,9.81241 -1.0724,11.40101 -0.1922,1.58858 -0.6366,12.62858 -0.9876,24.53333 -2.2254,75.47459 -2.3555,77.63197 -5.8345,96.84498 -3.059,16.89294 -11.8458,50.23131 -13.9018,52.74525 -0.5043,0.61678 -1.4666,3.17692 -2.1384,5.6892 -1.2848,4.80528 -5.8922,15.50929 -10.2673,23.85374 -4.9473,9.43559 -8.0444,19.09017 -7.408,23.09386 0.6958,4.37865 3.8824,17.139 7.5128,30.08462 3.3236,11.85106 6.8745,31.96863 7.3002,41.3584 0.3872,8.54295 -3.4567,23.50595 -7.89,30.71241 -11.9637,19.44725 -32.7541,25.80999 -59.2425,18.13072 -5.1885,-1.50417 -10.3008,-2.73486 -11.3607,-2.73486 -1.0601,0 -2.7608,-0.46197 -3.7796,-1.02661 -5.8716,-3.25452 -14.6614,-6.44006 -17.7697,-6.44006 -1.9731,0 -7.1189,0.70751 -11.4349,1.57225 -10.5074,2.10515 -18.9448,2.5737 -25.7167,1.4281 -3.0787,-0.5208 -6.5575,-1.09905 -7.7308,-1.28501 -1.1733,-0.18595 -4.4789,-0.71231 -7.3457,-1.16967 -6.1262,-0.97738 -20.9831,-7.2727 -29.8155,-12.63373 -6.7305,-4.08529 -7.16,-4.06963 -15.1055,0.5506 -1.76,1.02343 -5.3927,2.85961 -8.0727,4.08039 -4.5427,2.06927 -5.0355,2.70405 -7.2757,9.37168 -1.3217,3.93363 -2.9251,9.55206 -3.5633,12.48539 -0.6382,2.93334 -2.5241,10.07576 -4.191,15.87205 -1.6668,5.7963 -3.0306,11.46229 -3.0306,12.5911 0,1.12882 -1.2426,6.4664 -2.7613,11.86129 -4.1178,14.62792 -8.8448,36.03172 -11.7069,53.00888 -0.9395,5.5734 -2.155,12.7734 -2.7011,16 -1.5741,9.3014 -1.9823,11.9841 -2.516,16.5334 -0.9382,7.9987 -2.7989,25.585 -3.3857,32 -0.322,3.52 -0.7684,8.08 -0.9921,10.1333 -2.1073,19.3426 -2.8149,70.8542 -1.2748,92.8 0.9038,12.8779 4.5821,44.4367 6.2784,53.8667 0.6332,3.52 1.358,7.6 1.6105,9.0666 0.2525,1.4667 1.1619,5.4654 2.0207,8.8862 0.8589,3.4207 1.5616,7.1949 1.5616,8.3871 0,3.1357 6.7706,26.569 13.0386,45.1267 2.9722,8.8 6.0933,18.16 6.9357,20.8 0.8424,2.64 2.484,7.44 3.648,10.6667 3.0139,8.355 10.1896,34.8438 10.9802,40.5333 0.3669,2.64 1.3363,9.36 2.1543,14.9334 1.9004,12.9483 1.4627,39.6992 -0.794,48.5333 -0.8992,3.52 -2.4377,9.76 -3.4188,13.8667 -0.9811,4.1066 -2.4086,8.9066 -3.1722,10.6666 -0.7636,1.76 -2.0211,4.88 -2.7945,6.9334 -1.3733,3.6461 -8.0858,14.9395 -9.51,16 -0.394,0.2933 -1.163,1.353 -1.709,2.3549 -2.1279,3.9048 -12.9833,14.1424 -19.602,18.4866 -18.0138,11.823 -29.81531,15.5757 -49.08961,15.6098 -11.88237,0.021 -30.54816,-3.8795 -38.93334,-8.1354 -2.93333,-1.4888 -5.71501,-2.709 -6.1815,-2.7115 -0.4665,0 -4.5465,-2.4968 -9.06667,-5.5431 -7.78543,-5.2469 -18.36854,-15.0281 -25.1686,-23.2613 -3.24135,-3.9246 -13.4499,-19.7804 -13.4499,-20.8904 0,-0.3558 -0.89702,-1.9211 -1.99338,-3.4783 -1.09638,-1.5572 -2.36275,-4.0313 -2.81418,-5.498 -0.45143,-1.4667 -2.19441,-5.5117 -3.87328,-8.989 -1.67887,-3.4774 -3.05249,-6.9347 -3.05249,-7.6832 0,-2.5311 -2.46658,-6.7945 -3.93095,-6.7945 -0.80036,0 -1.92351,1.32 -2.49591,2.9334 -0.5724,1.6133 -1.60882,3.8933 -2.30317,5.0666 -0.69433,1.1734 -1.98337,3.5734 -2.86452,5.3334 -2.8766,5.7457 -15.73498,25.7801 -17.79965,27.7333 -0.62015,0.5867 -2.36563,2.7467 -3.87887,4.8 -2.79467,3.7921 -13.00579,14.3467 -18.57535,19.2 -5.31608,4.6325 -19.82323,13.8042 -28.89007,18.2647 -7.65121,3.7642 -14.02373,5.8899 -23.79485,7.9369 -1.46666,0.3073 -4.34666,1.0656 -6.4,1.6851 -3.47722,1.0492 -30.27298,2.2847 -31.12262,1.4351 z m 26.85596,-24.4275 c 10.64993,-2.299 14.32854,-3.4409 21.86667,-6.7873 4.69333,-2.0835 12.11704,-6.23 16.49713,-9.2143 8.41313,-5.7322 23.11397,-19.5973 28.3712,-26.7585 1.72242,-2.3462 3.89489,-5.1143 4.82772,-6.1514 0.93283,-1.037 2.36308,-3.1974 3.17832,-4.8008 0.81525,-1.6034 2.5041,-4.3553 3.753,-6.1153 2.60927,-3.6772 6.94057,-11.9251 9.52255,-18.1334 0.97594,-2.3466 2.36783,-5.4666 3.09306,-6.9333 3.1228,-6.3153 10.13783,-33.4578 9.69961,-37.5296 -0.20937,-1.9454 -0.70509,-8.3371 -1.10161,-14.2037 -0.39652,-5.8667 -0.87433,-10.9183 -1.06178,-11.226 -0.95579,-1.5682 -2.11254,-33.6778 -2.11254,-58.6407 0,-25.0477 0.62306,-42.8402 2.16647,-61.8667 0.26174,-3.2266 0.9471,-11.6266 1.52303,-18.6666 0.57592,-7.04 1.30228,-15.92 1.61411,-19.7334 0.65401,-7.9976 0.73961,-8.7154 4.26113,-35.7333 6.86157,-52.6435 9.92032,-72.758 13.54417,-89.0667 0.8757,-3.941 2.6433,-14.3731 4.60872,-27.2 0.17978,-1.1733 1.05661,-5.0133 1.94851,-8.5333 0.89189,-3.52 1.94112,-9.04 2.33161,-12.2667 0.3905,-3.2266 1.61225,-8.9866 2.71499,-12.8 1.10274,-3.8133 2.70119,-11.25596 3.55212,-16.53918 0.85093,-5.28323 2.7573,-13.92323 4.23637,-19.2 2.46448,-8.79233 3.61952,-14.40554 4.36882,-21.23156 0.15487,-1.41078 1.50664,-7.2895 3.00394,-13.06381 5.48491,-21.15247 10.57752,-44.25839 12.24798,-55.57084 0.47395,-3.20971 0.20158,-3.59459 -3.60463,-5.09357 -2.26454,-0.89183 -5.0231,-2.13454 -6.13015,-2.76157 -1.10704,-0.62704 -3.74704,-2.10282 -5.86666,-3.27955 -4.79145,-2.65998 -13.5072,-9.41101 -17.63164,-13.65706 -1.7111,-1.76156 -3.67433,-3.20284 -4.3627,-3.20284 -0.68838,0 -5.04838,1.01029 -9.6889,2.24508 -5.75675,1.53182 -12.50386,2.34804 -21.23729,2.56912 -7.04,0.17821 -13.29054,0.36793 -13.89008,0.42158 -0.59954,0.0537 -1.66082,3.1063 -2.35841,6.78365 -0.69759,3.67736 -2.00553,8.16384 -2.90656,9.96998 -0.90101,1.80612 -2.12803,5.87738 -2.72671,9.04723 -0.59867,3.16984 -2.47993,10.80336 -4.18057,16.96336 -1.70064,6.16 -3.40007,13.46881 -3.7765,16.2418 -0.37643,2.77299 -1.08189,5.28746 -1.56767,5.58769 -0.4858,0.30024 -1.69443,3.79141 -2.68584,7.75819 -4.64751,18.59519 -13.74501,52.05392 -18.20267,66.9457 -4.21231,14.0721 -10.15767,34.779 -11.94418,41.6 -0.92193,3.52 -2.27815,7.36 -3.01382,8.5333 -0.73567,1.1733 -1.66683,3.8133 -2.06925,5.8667 -0.69285,3.5352 -4.01164,14.0329 -5.90132,18.6666 -0.47851,1.1734 -2.08264,5.9734 -3.56474,10.6667 -3.66438,11.6039 -5.06571,15.6686 -6.15465,17.8521 -0.50804,1.0188 -0.9237,2.3863 -0.9237,3.0389 0,0.6526 -0.69179,2.6991 -1.53732,4.5478 -0.84552,1.8487 -2.69177,6.7212 -4.10277,10.8279 -4.71986,13.7369 -6.31279,17.9883 -10.19148,27.2 -0.61756,1.4666 -2.4127,6.0266 -3.9892,10.1333 -1.57651,4.1067 -3.1953,7.9467 -3.59733,8.5333 -0.40202,0.5867 -1.40708,3.2267 -2.23344,5.8667 -0.82637,2.64 -2.59283,6.8654 -3.92547,9.3897 -1.33264,2.5244 -2.42299,5.0367 -2.42299,5.5831 0,0.5462 -1.44,3.966 -3.2,7.5992 -1.76,3.6333 -3.2,6.9582 -3.2,7.3886 0,1.1 -14.16121,31.8934 -18.71623,40.6983 -1.4394,2.7823 -2.6171,5.7823 -2.6171,6.6666 0,0.8843 -0.36,1.6116 -0.8,1.6161 -0.44,0 -1.31978,1.0846 -1.95507,2.4 -2.67113,5.5308 -11.68724,22.7007 -12.17826,23.1917 -0.51826,0.5183 -1.0185,1.3713 -5.55853,9.4795 -1.18685,2.1197 -3.06172,5.128 -4.16636,6.6852 -1.10465,1.5572 -2.00845,3.1246 -2.00845,3.4831 0,0.6807 -5.64581,9.7049 -10.84006,17.3266 -1.66463,2.4426 -3.0266,4.872 -3.0266,5.3989 0,0.5268 -0.84,1.9027 -1.86667,3.0576 -2.80945,3.1602 -5.26002,7.9986 -6.1458,12.1341 -0.43567,2.0341 -1.16754,4.4341 -1.62639,5.3334 -5.33989,10.4653 -6.85365,54.9243 -2.63427,77.3683 2.22,11.8087 10.9058,33.7343 16.13474,40.7288 1.39611,1.8676 2.53839,3.7381 2.53839,4.1568 0,1.1644 7.44324,10.0825 12.24907,14.6762 5.41793,5.1788 15.95131,12.7157 20.81759,14.8958 5.37514,2.4079 17.25893,5.6452 27.73334,7.5549 4.98666,0.9091 10.02666,1.8808 11.2,2.1593 2.38047,0.565 13.48144,0.012 17.6,-0.8775 z m 237.86667,-3.0428 c 16.02608,-4.5191 33.00178,-19.6187 39.85618,-35.4515 1.0159,-2.3467 2.2488,-5.012 2.7397,-5.9228 1.6046,-2.9774 5.2045,-17.4005 5.9762,-23.9439 1.2992,-11.0168 1.2521,-25.1326 -0.1262,-37.8666 -1.7522,-16.1883 -9.4527,-45.8392 -17.5907,-67.7334 -1.0903,-2.9333 -3.9591,-11.5733 -6.3751,-19.2 -2.416,-7.6266 -5.2533,-16.5066 -6.3051,-19.7333 -1.0519,-3.2267 -2.455,-8.2667 -3.118,-11.2 -0.663,-2.9333 -2.4228,-10.6133 -3.9105,-17.0667 -1.4878,-6.4533 -2.9244,-13.2933 -3.19245,-15.2 -0.64035,-4.5549 -1.23665,-8.6952 -3.64857,-25.3333 -1.10559,-7.6267 -2.29565,-16.9867 -2.64459,-20.8 -0.34893,-3.8133 -0.88577,-9.5733 -1.19295,-12.8 -1.67534,-17.5979 -0.9696,-84.8011 1.11511,-106.1832 0.39772,-4.0792 0.92601,-9.5768 1.17399,-12.2168 0.24799,-2.64 1.37429,-11.76 2.50289,-20.2667 1.1286,-8.5066 2.36426,-18.3466 2.74587,-21.8666 0.3817,-3.52 1.3377,-9.28 2.1245,-12.8 0.7869,-3.52 1.9819,-9.28 2.6557,-12.8 0.6737,-3.52005 2.6237,-11.92005 4.3333,-18.66671 1.7095,-6.74667 3.3917,-13.70667 3.7382,-15.46667 0.3466,-1.76 1.7661,-7.76 3.1546,-13.33333 1.3885,-5.57334 2.8341,-12.53334 3.2123,-15.46667 0.3784,-2.93334 2.062,-10.37334 3.7414,-16.53334 1.6795,-6.16 3.356,-12.91109 3.7256,-15.00242 l 0.6719,-3.80242 -6.7483,-1.87347 c -11.8841,-3.29925 -27.27302,-11.52246 -36.61498,-19.5655 -4.85775,-4.18232 -4.51972,-4.17839 -25.6,-0.29724 -6.45333,1.18814 -13.43679,2.39957 -15.51879,2.69207 l -3.78546,0.53182 -3.99187,16.25858 c -2.19552,8.94222 -5.4382,22.25858 -7.20593,29.59192 -1.76773,7.33333 -4.62714,18.85333 -6.35421,25.6 -1.72708,6.74667 -4.08197,17.12562 -5.23309,23.06435 -1.15111,5.93873 -2.79892,13.61873 -3.66179,17.06667 -0.86287,3.44796 -2.37079,10.10896 -3.35093,14.80236 -0.98015,4.6933 -2.40922,11.4133 -3.17571,14.9333 -0.7665,3.52 -1.69829,8.56 -2.07064,11.2 -0.37236,2.64 -1.33553,7.92 -2.14037,11.7333 -2.54178,12.0429 -3.66345,18.3439 -5.35863,30.1025 -0.90676,6.2898 -2.11649,12.6665 -2.68828,14.1704 -0.5718,1.504 -0.95507,3.0778 -0.85169,3.4975 0.10336,0.4196 -0.16336,2.683 -0.59273,5.0296 -0.42935,2.3467 -1.21171,8.1067 -1.73857,12.8 -0.52685,4.6934 -1.75469,13.3334 -2.72854,19.2 -0.97385,5.8667 -1.91522,11.7091 -2.09194,12.9832 -0.17673,1.2741 -0.59538,3.6741 -0.93035,5.3333 -0.33496,1.6593 -0.89442,6.8569 -1.24323,11.5502 -0.3488,4.6933 -1.06826,11.4133 -1.59879,14.9333 -0.53053,3.52 -1.21871,9.28 -1.52928,12.8 -0.31057,3.52 -0.79676,8.08 -1.08042,10.1334 -1.34299,9.7215 -2.46223,24.7103 -3.30545,44.2666 -0.37945,8.8 -0.84991,17.68 -1.04549,19.7334 -0.53467,5.6134 -0.56241,63.896 -0.0327,68.8 0.25346,2.3466 0.75942,9.3066 1.12437,15.4666 1.23471,20.841 1.72098,24.4757 6.49303,48.5334 1.9783,9.9733 4.5773,20.6584 5.77555,23.7447 1.19825,3.0863 2.17864,6.323 2.17864,7.1928 0,3.766 14.80978,33.9272 18.21891,37.1041 1.12627,1.0495 2.04776,2.3093 2.04776,2.7997 0,1.6784 13.66713,14.6957 20.43662,19.4649 3.71986,2.6206 9.40338,5.8395 12.63005,7.1531 3.22667,1.3136 6.82667,2.8363 8,3.3841 6.39793,2.9863 30.45735,3.4322 40,0.7414 z M 549.70291,1388.7385 c 13.96903,-4.6723 25.10662,-11.0909 39.61947,-22.8324 6.79379,-5.4966 20.20079,-18.9386 25.65786,-25.7251 2.32087,-2.8861 4.46099,-5.4876 4.7558,-5.781 2.33004,-2.3183 20.54836,-28.0809 24.51491,-34.6666 1.41338,-2.3467 2.83512,-4.5067 3.15942,-4.8 0.32431,-0.2934 1.18964,-1.6134 1.92298,-2.9334 0.73333,-1.32 1.93333,-3.48 2.66666,-4.8 0.73334,-1.32 1.57334,-2.64 1.86667,-2.9333 0.29333,-0.2933 1.52951,-2.4533 2.74707,-4.8 2.86254,-5.5171 5.11533,-9.4624 5.78626,-10.1333 1.29655,-1.2966 22.89598,-44.1203 27.70735,-54.9334 1.3052,-2.9333 3.71326,-8.2133 5.35125,-11.7333 4.99529,-10.7348 7.68396,-16.8898 9.08599,-20.8 0.73622,-2.0533 2.60527,-6.4853 4.15343,-9.8489 1.54816,-3.3635 3.10445,-7.5635 3.45841,-9.3333 0.35396,-1.7698 1.06357,-3.2178 1.57691,-3.2178 0.51333,0 0.93629,-0.6 0.9399,-1.3333 0.003,-0.7334 0.64949,-2.5654 1.43529,-4.0712 0.78578,-1.5057 1.77791,-4.1291 2.20472,-5.8296 0.42681,-1.7005 1.70093,-5.1222 2.83138,-7.6037 1.13046,-2.4815 2.05537,-5.1622 2.05537,-5.957 0,-0.7949 0.39518,-1.9012 0.87817,-2.4585 0.483,-0.5574 1.80095,-3.8934 2.92879,-7.4134 1.12784,-3.52 2.33813,-6.64 2.68952,-6.9333 0.35141,-0.2933 1.72,-4.1333 3.04134,-8.5333 1.32133,-4.4 2.78426,-8.48 3.25095,-9.0667 0.46669,-0.5867 1.69342,-4.1867 2.72609,-8 1.03266,-3.8133 2.49303,-8.1333 3.24525,-9.6 1.28339,-2.5023 10.46391,-31.0231 13.39055,-41.6 0.7305,-2.64 1.90931,-5.76 2.61958,-6.9333 0.71029,-1.1734 1.63182,-4.2934 2.04787,-6.9334 0.41604,-2.64 1.16787,-5.3119 1.67074,-5.9377 0.50287,-0.6257 2.09466,-5.4257 3.53731,-10.6666 1.44266,-5.241 4.33491,-15.52901 6.42723,-22.86235 2.09232,-7.33333 5.06562,-18.37333 6.60733,-24.53333 1.54171,-6.16 3.95033,-14.87761 5.35248,-19.37247 1.40215,-4.49487 2.97053,-10.25487 3.48527,-12.8 0.98293,-4.86012 4.76556,-20.05777 16.57216,-66.58293 1.50115,-5.91545 2.72938,-11.02805 2.72938,-11.3613 0,-0.33326 -1.56,-1.60227 -3.46667,-2.82005 -1.90667,-1.21777 -4.40741,-2.82518 -5.55722,-3.57202 -1.78449,-1.15909 -7.06354,-5.45757 -19.72002,-16.05702 -2.42708,-2.03261 -3.02684,-2.09083 -8.53333,-0.82834 -8.38088,1.92152 -29.09718,2.60742 -37.92277,1.25559 -4.10666,-0.62902 -8.38633,-1.27517 -9.51039,-1.4359 -2.36254,-0.33782 -2.75515,0.7923 -10.64482,30.6411 -9.8409,37.23085 -11.23667,42.74751 -12.95409,51.2 -0.95362,4.69334 -2.39752,9.97334 -3.20868,11.73334 -0.81117,1.76 -1.99658,5.6 -2.63425,8.53333 -1.34765,6.19924 -9.53626,31.49523 -10.70408,33.06667 -0.43597,0.58667 -1.50637,3.46667 -2.37865,6.4 -0.87228,2.93333 -2.80388,7.98087 -4.29246,11.21677 -1.48857,3.23589 -3.05548,7.31589 -3.48201,9.06666 -0.42653,1.75078 -1.4239,4.13004 -2.21638,5.28725 -0.79247,1.15719 -1.44085,2.95719 -1.44085,4 0,1.0428 -0.44187,1.896 -0.98191,1.896 -0.54006,0 -1.32384,1.56 -1.74175,3.4667 -0.41791,1.9066 -1.84681,5.6266 -3.17533,8.2666 -1.32852,2.64 -3.95452,8.16 -5.83554,12.2667 -6.43405,14.0469 -14.23497,29.8651 -16.04414,32.5333 -0.99446,1.4667 -2.17579,3.8667 -2.62516,5.3334 -0.44937,1.4666 -1.11234,2.9066 -1.47327,3.2 -0.36093,0.2933 -1.17135,1.4933 -1.80093,2.6666 -4.9364,9.1999 -6.39116,11.8023 -6.857,12.2667 -0.29428,0.2933 -1.24633,1.9733 -2.11567,3.7333 -2.25972,4.5748 -23.91646,38.3567 -25.64299,40 -0.3082,0.2934 -3.18225,4.1334 -6.3868,8.5334 -19.90741,27.3339 -28.23424,36.3883 -80.43787,87.4666 -8.0945,7.92 -17.57053,18 -21.05786,22.4 -3.48734,4.4 -7.19962,8.96 -8.24952,10.1334 -1.04989,1.1733 -2.53547,3.3333 -3.30128,4.8 -0.76579,1.4666 -1.76704,2.9143 -2.22498,3.2169 -0.45795,0.3027 -2.23189,3.1827 -3.94209,6.4 -1.71021,3.2174 -4.0674,7.5297 -5.23821,9.5831 -1.17081,2.0533 -2.74757,5.6533 -3.5039,8 -0.75634,2.3466 -1.80043,4.8052 -2.3202,5.4635 -0.51977,0.6583 -2.01721,5.9383 -3.32765,11.7334 -3.41566,15.1047 -3.36612,34.2634 0.11551,44.6697 5.84164,17.4602 20.96292,33.3054 37.32752,39.1147 16.19029,5.7474 37.11462,6.0738 52.81058,0.8238 z m -53.16957,-221.3228 c 11.66168,-2.446 20.09146,-5.0028 22.30792,-6.7661 0.63731,-0.507 2.35245,-1.289 3.81142,-1.7378 2.67755,-0.8236 5.10312,-2.2549 18.68066,-11.0237 19.60147,-12.6591 34.885,-28.4426 49.72798,-51.3547 8.49696,-13.1162 11.60536,-18.1315 11.60536,-18.7247 0,-0.3434 1.34081,-2.6308 2.97957,-5.0831 1.63876,-2.4524 3.57503,-5.6589 4.30282,-7.1256 0.72777,-1.4666 3.1986,-6.0266 5.49072,-10.1333 6.04611,-10.8325 16.66964,-32.5989 22.64644,-46.4 1.14331,-2.64 2.76162,-6.0741 3.59626,-7.6313 0.83463,-1.55714 1.51752,-3.43921 1.51752,-4.18234 0,-0.74311 1.39403,-4.26905 3.09784,-7.83541 1.70381,-3.56637 3.441,-7.6843 3.86042,-9.15096 0.85877,-3.00296 4.31656,-11.30691 5.87915,-14.11886 0.56609,-1.01871 1.02926,-2.82522 1.02926,-4.01448 0,-1.18926 0.45675,-2.99576 1.015,-4.01447 2.28001,-4.16063 4.42602,-9.77925 6.89014,-18.03944 1.43081,-4.79632 3.07688,-9.60889 3.65793,-10.69462 0.58107,-1.08573 1.61783,-5.08147 2.30391,-8.87943 0.68608,-3.79796 2.12725,-9.06537 3.20261,-11.70537 1.07537,-2.64 3.931,-12.96 6.34586,-22.93334 2.41485,-9.97333 5.75767,-23.41333 7.42849,-29.86666 1.67081,-6.45334 3.6338,-15.33334 4.36219,-19.73334 0.7284,-4.4 1.98501,-10.36712 2.79245,-13.26026 1.93793,-6.94376 1.85179,-9.39825 -0.39858,-11.35733 -1.02667,-0.89376 -4.02667,-5.05493 -6.66667,-9.24704 l -4.8,-7.62201 -12.26666,0.3742 c -12.89134,0.39327 -17.92249,-0.25426 -33.58441,-4.3225 -5.27142,-1.36927 -9.87767,-2.14656 -10.23613,-1.72732 -0.35844,0.41924 -1.24447,6.04226 -1.96895,12.4956 -0.72447,6.45333 -1.45881,12.93333 -1.63187,14.4 -0.17306,1.46666 -1.77958,8.18666 -3.57005,14.93333 -1.79046,6.74667 -3.57162,14.30415 -3.95813,16.79441 -0.38652,2.49026 -1.0966,4.77115 -1.57795,5.06865 -0.48137,0.29749 -1.72049,3.22829 -2.75362,6.51289 -3.34332,10.62928 -16.44787,35.33679 -26.97512,50.85929 -3.89242,5.73939 -7.55711,11.19376 -8.14378,12.12083 -2.65463,4.19492 -17.95648,22.05994 -27.17455,31.7265 -13.33712,13.98601 -35.27176,32.6757 -58.56785,49.90348 -2.12168,1.569 -8.4176,5.9654 -13.99093,9.7696 -12.94382,8.8352 -21.72079,14.9651 -22.4,15.6444 -0.29333,0.2933 -2.21333,1.7119 -4.26667,3.1524 -5.1628,3.622 -4.92703,3.4335 -13.86666,11.0846 -19.37325,16.5809 -28.62877,30.251 -34.77609,51.363 -2.26752,7.7874 -2.68888,11.0097 -2.23163,17.0666 0.68316,9.0496 5.16027,21.9304 9.63961,27.7334 12.24954,15.8693 24.80321,23.217 46.56811,27.2568 3.81333,0.7077 8.13333,1.6485 9.6,2.0905 5.16683,1.5572 19.79509,0.7831 31.46666,-1.665 z M 1230.7371,893.12428 c 6.9614,-5.15601 9.3051,-12.66982 9.0842,-29.12426 -0.1003,-7.48181 -1.6824,-17.76904 -4.1006,-26.66667 -2.214,-8.14592 -4.5451,-14.31925 -5.5312,-14.64795 -0.6571,-0.21905 -2.5472,1.42713 -4.2002,3.65817 -5.9455,8.02451 -11.6757,13.24696 -15.4748,14.10381 -4.5803,1.03302 -11.2589,-1.51959 -12.3027,-4.70219 -1.1933,-3.6379 -0.3576,-9.26497 1.8327,-12.34099 1.1489,-1.61343 2.0889,-3.25306 2.0889,-3.64362 0,-0.39056 3.0363,-5.11646 6.7475,-10.502 6.2858,-9.12197 8.3039,-12.32009 15.8754,-25.15875 3.2946,-5.58648 14.7104,-28.23839 14.7104,-29.18926 0,-0.34561 1.3867,-3.66187 3.0814,-7.36947 9.263,-20.26435 18.54,-55.28227 20.8602,-78.74109 1.2947,-13.08825 1.5726,-18.45699 2.15,-41.52339 2.4065,-96.14208 3.6164,-104.56876 18.6178,-129.67661 2.1032,-3.52 4.9039,-7.59509 6.2239,-9.05577 1.32,-1.46067 2.4064,-3.14067 2.4143,-3.73333 0.011,-0.59266 0.9686,-2.27757 2.1347,-3.74423 1.1663,-1.46667 4.5119,-6.02667 7.4347,-10.13334 2.9228,-4.10666 5.9989,-8.42666 6.8361,-9.6 5.5173,-7.73394 15.5802,-23.30104 15.5802,-24.10234 0,-0.53038 0.48,-0.96432 1.0667,-0.96432 0.5867,0 1.0667,-0.51352 1.0667,-1.14115 0,-0.62763 1.3617,-3.14763 3.0261,-5.6 4.3612,-6.42607 8.4468,-15.37539 9.8271,-21.52552 0.6583,-2.93334 2.6096,-10.70544 4.3363,-17.27134 7.3521,-27.95805 6.5001,-45.41478 -2.6821,-54.954 -4.4401,-4.61271 -15.7342,-9.22291 -27.1487,-11.08193 -11.5064,-1.87399 -35.9696,-2.53187 -51.3587,-1.38118 -36.5491,2.73288 -38.984,3.04644 -66.6112,8.5775 -8.7695,1.75568 -17.4863,3.83633 -19.3707,4.62367 -5.3347,2.22899 -24.8628,7.06344 -29.2363,7.23785 -3.9364,0.15697 -19.4008,-4.37656 -20.0707,-5.88391 -0.1956,-0.44 -1.2756,-0.8 -2.4,-0.8 -1.1245,0 -2.0445,-0.36282 -2.0445,-0.80628 0,-0.44346 -1.56,-1.42092 -3.4666,-2.17214 -1.9067,-0.75122 -6.3467,-2.73258 -9.8667,-4.40302 -3.52,-1.67044 -10.24,-4.80473 -14.9333,-6.9651 -4.6934,-2.16035 -10.4534,-4.8575 -12.8,-5.99365 -2.3467,-1.13615 -4.8667,-2.0644 -5.6,-2.06277 -0.7334,0.002 -1.3334,-0.47704 -1.3334,-1.0637 0,-0.58667 -0.8084,-1.06667 -1.7966,-1.06667 -1.7318,0 -8.4872,-2.79708 -14.368,-5.94914 -1.5571,-0.83464 -3.4456,-1.51753 -4.1965,-1.51753 -0.7509,0 -3.3169,-0.92305 -5.7021,-2.05123 -2.3852,-1.12817 -7.9368,-3.07892 -12.3368,-4.33499 -4.4,-1.25606 -9.5442,-2.98805 -11.4316,-3.84885 -3.8331,-1.74821 -22.8025,-6.0197 -23.5249,-5.29729 -0.2546,0.25455 -1.6256,0.0208 -3.04673,-0.51956 -4.31997,-1.64246 -16.24263,-3.48164 -30.26342,-4.66841 -4.4,-0.37244 -9.44,-0.85441 -11.2,-1.07107 -2.89567,-0.35645 -10.24957,-0.79656 -37.86667,-2.26619 -28.27071,-1.5044 -47.53715,-3.72955 -49.06666,-5.66688 -0.29334,-0.37154 -2.69334,-1.85162 -5.33334,-3.28909 -6.20031,-3.37601 -6.02222,-3.22968 -17.36613,-14.26872 -5.32161,-5.17858 -11.87125,-11.17858 -14.55476,-13.33333 -2.68351,-2.15475 -5.11911,-4.15894 -5.41244,-4.45375 -0.29333,-0.29482 -3.41333,-2.6936 -6.93333,-5.33064 -3.52,-2.63703 -6.64,-5.03855 -6.93334,-5.3367 -1.3341,-1.35602 -8.45933,-6.39663 -9.04205,-6.39663 -0.35808,0 -1.9452,-1.2 -3.52694,-2.66667 C 799.71596,218.8 798.03058,217.6 797.55239,217.6 c -0.47819,0 -3.69676,-1.92 -7.15237,-4.26666 -3.45562,-2.34667 -6.50023,-4.26667 -6.7658,-4.26667 -0.26555,0 -3.64322,-1.92 -7.50592,-4.26667 -3.86268,-2.34666 -7.47174,-4.26666 -8.02012,-4.26666 -0.54838,0 -1.15705,-0.36443 -1.35261,-0.80983 -0.46389,-1.05656 -28.70203,-15.04729 -40.35556,-19.99437 -11.73749,-4.98272 -17.18847,-5.64789 -23.46666,-2.86361 -7.12009,3.15763 -15.76076,12.17114 -18.34301,19.13447 -0.70705,1.90667 -1.66913,3.46667 -2.13794,3.46667 -0.46881,0 -0.85239,0.93167 -0.85239,2.07038 0,1.13871 -0.47369,2.36315 -1.05265,2.72096 -0.57895,0.35781 -1.8369,3.38614 -2.79543,6.72962 -0.95853,3.34347 -2.09713,6.55904 -2.53022,7.14571 -0.43309,0.58666 -2.49529,7.06666 -4.58267,14.4 -2.71442,9.53629 -3.68511,14.85215 -3.40856,18.66666 0.21266,2.93334 0.665,10.37334 1.00521,16.53334 0.34021,6.16 0.82733,12.4 1.0825,13.86667 0.25517,1.46666 0.74541,6.02666 1.08942,10.13333 0.87813,10.4826 2.57918,26.1646 3.18183,29.33333 2.99864,15.76677 4.81057,31.97574 4.81057,43.03381 0,11.61411 -0.65141,15.52832 -3.75552,22.56619 -0.77626,1.76 -2.35742,5.6 -3.51368,8.53334 -3.00906,7.63368 -6.91607,16.15871 -14.70625,32.08878 -3.7535,7.6755 -6.82455,14.5155 -6.82455,15.2 0,0.6845 -0.48,1.24455 -1.06666,1.24455 -0.58667,0 -1.06667,0.96 -1.06667,2.13334 0,1.17333 -0.44187,2.13333 -0.98191,2.13333 -0.54005,0 -1.32036,1.56 -1.73402,3.46667 -0.41364,1.90666 -1.0794,3.70666 -1.47944,4 -0.70722,0.51857 -7.20808,13.73436 -12.59264,25.6 -1.46424,3.22666 -3.64912,8.02666 -4.85528,10.66666 -1.20615,2.64 -2.64832,6 -3.20481,7.46667 -0.55648,1.46667 -1.59666,3.86667 -2.31152,5.33333 -0.71485,1.46667 -2.14088,5.54667 -3.16897,9.06667 -1.02808,3.52 -2.57315,7.97242 -3.43347,9.89426 -0.86032,1.92185 -2.276,6.96185 -3.14596,11.2 -0.86997,4.23816 -2.47211,11.06574 -3.56032,15.17241 -2.3685,8.93819 -5.54028,30.12803 -7.02517,46.93333 -1.41127,15.97233 -0.5178,50.22429 1.5492,59.38908 1.38721,6.15072 1.39902,24.75153 0.0176,27.78334 -1.44398,3.16917 -5.09453,5.09425 -9.6603,5.09425 -7.07973,0 -9.39738,-3.29819 -12.18653,-17.34243 -1.01844,-5.12833 -2.24695,-9.32424 -2.72999,-9.32424 -1.63096,0 -12.15545,11.09074 -22.07501,23.26272 -10.66085,13.08157 -15.79758,30.21085 -11.51247,38.39025 2.25473,4.30382 8.13888,9.4164 12.35767,10.73724 13.78866,4.31703 25.1944,6.79976 33.06667,7.19775 17.45833,0.88263 17.80634,0.97981 23.40381,6.53567 7.82422,7.76604 13.05137,11.8865 16.86286,13.29266 1.90667,0.70342 3.46667,1.66252 3.46667,2.13133 0,0.46881 0.73688,0.85238 1.63752,0.85238 0.90064,0 2.70064,0.68456 4,1.52125 6.21896,4.0045 25.47864,5.73312 44.51083,3.99499 9.88115,-0.90241 13.80739,-0.27325 15.33758,2.45777 0.64941,1.15904 2.74073,4.64836 4.6474,7.75405 1.90667,3.10568 3.46667,6.05329 3.46667,6.55022 0,2.0639 14.87519,16.06192 17.75322,16.70634 1.67573,0.37522 4.72678,1.45896 6.78011,2.40831 4.69001,2.16843 27.5906,2.36389 32.53333,0.27767 1.76,-0.74285 4.64,-1.57548 6.40001,-1.85027 1.76,-0.27481 5.44736,-1.15124 8.19413,-1.94762 4.98765,-1.44609 4.99832,-1.44357 8.21924,1.93966 9.40319,9.87704 14.73549,14.93239 21.85935,20.72404 2.88423,2.34485 11.97877,7.45726 14.63157,8.22499 1.40931,0.40786 4.00237,1.38507 5.76237,2.17157 1.76,0.78649 6.69197,1.91065 10.95993,2.49812 12.50912,1.72183 17.99244,0.56805 33.53658,-7.05667 l 10.36316,-5.08336 4.50318,6.42114 c 6.81159,9.71273 16.832,19.69551 22.54779,22.46306 5.52237,2.67392 8.11377,3.36444 16.0063,4.26515 2.81432,0.32118 6.17432,0.97863 7.46667,1.461 4.78724,1.78685 29.43056,-2.47031 39.68306,-6.85529 1.76,-0.75276 4.78744,-1.88066 6.72764,-2.50648 3.67108,-1.1841 4.5263,-0.64801 15.09195,9.46037 4.23987,4.05638 11.67736,9.61146 16.04706,11.9856 9.992,5.42879 24.157,7.79137 33.6,5.60415 6.2072,-1.43772 19.6923,-8.03642 21.9277,-10.7299 2.4471,-2.94864 7.375,-4.58637 10.824,-3.59722 1.6802,0.48187 5.3827,2.58491 8.2278,4.67342 2.8452,2.0885 5.5022,3.79728 5.9046,3.79728 0.4023,0 2.7843,1.41236 5.2933,3.13858 2.509,1.72622 5.9554,3.48215 7.6589,3.90207 1.7033,0.41992 4.0571,1.35101 5.2304,2.06909 1.1733,0.71809 5.68,2.15021 10.0148,3.18248 10.5747,2.51821 28.8633,1.68799 37.4519,-1.70012 7.5843,-2.99197 9.8105,-2.85742 17.8836,1.08081 3.676,1.79323 7.1012,3.26042 7.6114,3.26042 0.5103,0 2.2997,0.71178 3.9765,1.58173 1.6769,0.86996 5.6918,2.10838 8.922,2.75204 3.2302,0.64366 8.2731,1.84178 11.2065,2.66246 7.5485,2.11194 20.0978,1.40623 23.8037,-1.33863 z M 1066.6667,736.32164 c -2.64,-0.20479 -5.76,-0.81521 -6.9333,-1.35651 -1.1734,-0.54128 -4.7734,-2.05297 -8,-3.35929 -6.0333,-2.44257 -12.5649,-6.7011 -21.8305,-14.23312 -2.9134,-2.36832 -5.93,-4.78604 -6.7037,-5.37271 -2.3386,-1.77351 -3.8193,-3.02084 -8.547,-7.2 -2.4887,-2.2 -5.2144,-4 -6.057,-4 -0.8427,0 -3.8413,1.96825 -6.6636,4.37388 -2.82239,2.40563 -6.13432,5.21529 -7.35989,6.24366 -9.54797,8.01175 -25.1088,16.11101 -34.80285,18.11453 -3.09953,0.6406 -6.83551,1.40984 -8.30217,1.70944 -3.45013,0.70473 -22.22712,0.72458 -23.35957,0.0246 -0.47692,-0.29474 -2.97612,-0.77809 -5.55378,-1.07409 -4.54547,-0.52197 -15.87393,-3.76562 -16.95332,-4.85422 -0.29334,-0.29583 -3.2349,-1.88613 -6.53682,-3.534 -7.98209,-3.98356 -11.94029,-7.37853 -18.16115,-15.57696 -9.72736,-12.81962 -12.01452,-26.42263 -6.25843,-37.22219 7.09814,-13.31746 18.00798,-13.21484 21.39029,0.20119 3.24912,12.88782 8.76155,21.96571 15.43277,25.41476 2.34667,1.21324 5.49912,2.83532 7.00544,3.60464 7.17772,3.66585 32.17999,4.8481 42.98882,2.03276 14.36135,-3.74066 25.42979,-11.22955 33.04708,-22.35957 4.12662,-6.02963 4.40262,-6.90123 4.41361,-13.93793 0.0111,-7.08606 -0.3703,-8.27945 -6.81525,-21.32643 -7.85529,-15.90203 -9.06342,-21.4292 -5.42494,-24.81895 3.22417,-3.00379 15.63266,-9.38624 20.25196,-10.41682 8.5057,-1.8977 21.4578,-0.89033 28.2339,2.19594 1.778,0.80982 4.9661,2.17007 7.0848,3.02279 5.1425,2.0698 8.3685,4.85383 10.013,8.64137 2.4989,5.75544 -0.6906,11.36487 -15.0916,26.54127 -7.3011,7.69418 -8.8683,9.99325 -9.9849,14.64786 -2.7394,11.41895 0.7729,21.27644 11.1278,31.23145 2.9793,2.86424 8.537,6.65862 12.3503,8.43196 3.8133,1.77334 8.0844,3.763 9.4914,4.42146 3.7361,1.74853 24.352,1.53248 28.9086,-0.30295 6.4133,-2.58334 10.5516,-6.38453 13.2196,-12.14281 3.7215,-8.03189 5.6386,-12.65454 6.5056,-15.68672 1.5492,-5.41783 5.1417,-11.54203 7.3422,-12.51658 2.5509,-1.12972 7.586,-0.0209 10.6752,2.35098 3.4579,2.65497 4.7558,11.50409 3.1543,21.50571 -2.199,13.73253 -9.0427,26.77417 -18.3722,35.01089 -5.2393,4.62561 -17.8034,9.97228 -26.3296,11.20459 -7.3098,1.05649 -9.2114,1.09393 -18.5951,0.36603 z m 30.5389,-162.41102 c -3.1286,-3.24004 -2.063,-14.0309 2.0055,-20.31061 8.1043,-12.5089 17.1256,-19.96386 31.4556,-25.99425 l 10.1333,-4.26432 16,-0.0707 c 15.3885,-0.068 16.2247,0.0414 21.8777,2.8627 9.5974,4.7899 18.0108,13.94576 21.1008,22.96331 2.146,6.2626 1.4566,6.60071 -12.4089,6.08662 -6.84,-0.25361 -14.3562,-0.004 -16.7029,0.55524 -2.3467,0.55899 -6.4267,1.32075 -9.0667,1.69279 -2.64,0.37204 -7.92,1.66602 -11.7333,2.8755 -3.8133,1.20948 -7.4133,2.33588 -8,2.50311 -3.5855,1.02207 -13.8094,4.77853 -16.7683,6.16106 -5.6548,2.64205 -17.0273,6.09471 -21.6317,6.56728 -3.2179,0.33027 -4.7569,-0.0699 -6.2611,-1.62772 z M 913.36174,559.49379 c -2.47772,-0.81138 -6.07772,-2.66045 -8,-4.10902 -4.68807,-3.53281 -19.8727,-11.38311 -22.03396,-11.39133 -0.95027,-0.003 -3.0811,-0.71244 -4.73517,-1.57517 -4.3695,-2.27905 -36.59791,-11.02712 -42.85926,-11.63372 -2.93333,-0.28418 -7.97333,-1.00978 -11.2,-1.61245 -3.22667,-0.60268 -8.8966,-1.34312 -12.59986,-1.64543 -9.5073,-0.77611 -10.22414,-1.54412 -7.16497,-7.67637 5.85768,-11.742 33.31704,-22.16901 58.16483,-22.08665 12.8168,0.0425 28.77948,3.98272 34.13333,8.42548 0.88,0.73025 3.36305,2.30748 5.51789,3.50496 9.72584,5.4048 25.1969,21.30014 29.76698,30.58331 4.11471,8.35816 3.81559,14.61394 -0.86308,18.0508 -3.53326,2.59546 -12.08174,3.14514 -18.12673,1.16559 z M 1236.4832,458.96174 c -4.9377,-5.16039 -8.2505,-9.11124 -10.3498,-12.34299 -0.5867,-0.90316 -4.9067,-7.2176 -9.6,-14.0321 -4.6934,-6.81448 -9.0134,-13.20977 -9.6,-14.21173 -0.5867,-1.00196 -2.6086,-4.24852 -4.4931,-7.21457 -11.3068,-17.79664 -11.3013,-26.41453 0.022,-34.21795 6.7352,-4.64143 19.6634,-9.51685 36.4709,-13.7537 11.5567,-2.91322 15.9989,-3.51555 26.6666,-3.61578 13.2812,-0.12475 17.7685,0.73462 25.6865,4.9193 7.6408,4.03813 13.2469,14.01532 13.2469,23.57549 0,6.0868 -4.1755,21.04178 -7.9478,28.46563 -1.4904,2.93333 -2.712,5.93333 -2.7144,6.66667 0,0.73333 -0.4845,1.33333 -1.0712,1.33333 -0.5866,0 -1.0666,0.50049 -1.0666,1.11221 0,0.61172 -1.9921,3.85172 -4.4269,7.20001 -10.472,14.40096 -29.8584,28.80282 -41.2233,30.62431 -4.4521,0.71355 -4.7272,0.58439 -9.6,-4.50813 z M 721.0523,339.57997 c -4.50305,-1.22514 -11.88672,-17.19782 -13.36471,-28.91114 -0.35178,-2.78785 -0.86486,-6.26882 -1.14018,-7.73549 -0.27533,-1.46667 -0.70874,-9.38667 -0.96314,-17.6 -0.46509,-15.01581 0.3259,-21.07753 4.17362,-31.98433 2.74202,-7.77256 12.37003,-14.45139 21.19781,-14.70469 4.69949,-0.13482 14.41607,2.05338 16.19098,3.64628 0.55733,0.50017 1.76375,0.9094 2.68091,0.9094 0.91716,0 4.16223,1.68 7.21125,3.73334 3.04903,2.05333 5.83691,3.73333 6.19529,3.73333 0.35838,0 1.27394,0.6 2.03457,1.33333 0.76064,0.73334 4.45908,3.96061 8.21876,7.17172 17.39275,14.85495 28.915,33.22486 26.38511,42.06576 -1.78917,6.25239 -8.0641,10.58585 -34.53922,23.85278 -21.44468,10.74612 -38.05879,16.18261 -44.28105,14.48971 z"
       id="path292" />
  </g>
</svg>
